<svg width="81" height="80" viewBox="0 0 81 80" fill="none" xmlns="http://www.w3.org/2000/svg">
<path d="M39.7001 11.6L4.1001 30.8V66.4H77.3001V30L39.7001 11.6Z" fill="#A9BDCB"/>
<rect x="16.5" y="10.4" width="48" height="48" rx="6" fill="#BD5454"/>
<path d="M34.9969 23.9031L33.2998 25.6001L39.6998 32.0001L33.6223 38.0777L35.3193 39.7747L41.3969 33.6972L47.3773 39.6777L49.0744 37.9806L43.0939 32.0001L49.3969 25.6972L47.6998 24.0001L41.3969 30.3031L34.9969 23.9031Z" fill="white"/>
<mask id="mask0_1255_1696" style="mask-type:alpha" maskUnits="userSpaceOnUse" x="3" y="30" width="73" height="45">
<path d="M3.7002 68.3999V30.3999L75.7002 74.3999H9.7002C6.38649 74.3999 3.7002 71.7136 3.7002 68.3999Z" fill="#DFE2E7"/>
</mask>
<g mask="url(#mask0_1255_1696)">
<path d="M3.7002 30.3999V69.5999C3.7002 72.2509 5.84923 74.3999 8.5002 74.3999H72.5002C75.1512 74.3999 77.3002 72.2509 77.3002 69.5999V30.3999L40.5002 52.8888L3.7002 30.3999Z" fill="#DFE2E7"/>
</g>
<mask id="mask1_1255_1696" style="mask-type:alpha" maskUnits="userSpaceOnUse" x="5" y="30" width="73" height="45">
<path d="M77.3003 68.3999V30.3999L5.30029 74.3999H71.3003C74.614 74.3999 77.3003 71.7136 77.3003 68.3999Z" fill="#E7EBF1"/>
</mask>
<g mask="url(#mask1_1255_1696)">
<path d="M3.7002 30.3999V69.5999C3.7002 72.2509 5.84923 74.3999 8.5002 74.3999H72.5002C75.1512 74.3999 77.3002 72.2509 77.3002 69.5999V30.3999L40.5002 52.8888L3.7002 30.3999Z" fill="#E7EBF1"/>
</g>
</svg>
