<svg width="21" height="21" viewBox="0 0 21 21" fill="none" xmlns="http://www.w3.org/2000/svg">
<path d="M0.49585 10.4841C0.49585 4.96461 4.98691 0.494423 10.5285 0.496094C16.025 0.496094 20.5094 5.00722 20.5044 10.5208C20.4985 16.0804 16.0058 20.5455 10.3857 20.4996C4.90842 20.4637 0.49585 16.0135 0.49585 10.4841ZM6.69465 7.84004C6.43076 9.60263 6.43076 11.3947 6.69465 13.1573H14.3031C14.5674 11.3948 14.5674 9.6026 14.3031 7.84004H6.69465ZM6.94517 6.49171H14.0124C14.0097 6.44214 14.0024 6.39293 13.9907 6.34468C13.7836 5.7432 13.6058 5.13002 13.3594 4.54441C13.0254 3.75329 12.5769 3.02901 11.9256 2.44924C11.1055 1.71744 10.2153 1.63474 9.36523 2.21784C9.23988 2.30493 9.12099 2.40097 9.00948 2.50522C8.25207 3.20528 7.7886 4.09246 7.42283 5.03813C7.24246 5.50846 7.10801 5.99549 6.946 6.49338L6.94517 6.49171ZM6.98025 14.5115C6.98366 14.561 6.9912 14.6102 7.00279 14.6585C7.20906 15.26 7.38776 15.8732 7.63327 16.4588C7.96731 17.2441 8.40656 17.9625 9.05291 18.5381C9.4788 18.9165 9.9573 19.1889 10.5477 19.1705C11.1022 19.1529 11.5548 18.889 11.954 18.5264C12.7339 17.8171 13.2066 16.9099 13.5757 15.9442C13.7527 15.4814 13.888 15.0027 14.0484 14.5115H6.98025ZM18.7332 13.1623C18.7457 13.1331 18.7582 13.1089 18.7666 13.083C19.2932 11.4183 19.3005 9.63261 18.7874 7.96368C18.7507 7.8392 18.6789 7.83001 18.5745 7.83085C17.762 7.83085 16.9503 7.83085 16.1377 7.83085H15.6367C15.891 9.59863 15.891 11.3937 15.6367 13.1615L18.7332 13.1623ZM5.30424 7.84004C5.27907 7.83625 5.25369 7.83402 5.22825 7.83336C4.28461 7.83336 3.34097 7.83335 2.39649 7.82918C2.26872 7.82918 2.22947 7.88515 2.20275 7.98707C1.85437 9.10347 1.74567 10.2809 1.88375 11.4423C1.95557 12.022 2.0992 12.5934 2.20776 13.1556H5.30257C5.25497 12.2634 5.1723 11.3846 5.1723 10.5058C5.1723 9.62694 5.2558 8.73892 5.30424 7.84004ZM13.787 2.48433L13.7486 2.52443L13.8254 2.64556C14.5538 3.77094 15.0737 5.0183 15.3603 6.32798C15.392 6.46832 15.4438 6.50424 15.5766 6.50341C16.3958 6.4984 17.215 6.50341 18.0342 6.50341C18.0718 6.50341 18.1093 6.49923 18.1745 6.49422C17.1624 4.62711 15.706 3.30051 13.787 2.48684V2.48433ZM13.7477 18.5356C15.7093 17.7002 17.1716 16.3744 18.1803 14.5048C17.2709 14.5048 16.4033 14.5048 15.5356 14.5048C15.4154 14.5048 15.3912 14.5591 15.3686 14.6619C15.1974 15.4761 14.9282 16.2665 14.5669 17.016C14.3206 17.5181 14.0375 18.0034 13.7477 18.5381V18.5356ZM7.20989 18.518L7.24663 18.4771L7.16897 18.3568C6.43919 17.2324 5.91811 15.9855 5.63075 14.6761C5.59986 14.534 5.54725 14.5015 5.41364 14.5023C4.60194 14.5073 3.7894 14.5023 2.97687 14.5023C2.93261 14.5023 2.89336 14.509 2.81904 14.514C3.83616 16.3819 5.29088 17.7069 7.20989 18.5205V18.518ZM2.81152 6.50341C3.73011 6.50341 4.61112 6.50341 5.49129 6.49589C5.53639 6.49589 5.60654 6.39815 5.62073 6.33549C5.91425 5.0348 6.43376 3.79576 7.15561 2.6748C7.18818 2.62468 7.21573 2.57205 7.24496 2.52109C5.29171 3.298 3.83617 4.62461 2.81152 6.50341Z" fill="#1E2333"/>
</svg>
