<svg width="998" height="140" viewBox="0 0 998 140" fill="none" xmlns="http://www.w3.org/2000/svg">
<g clip-path="url(#clip0_926_4923)">
<path d="M511.688 45.9994H487.495V69.4095H477.034V13.4475H487.495V37.1213H511.688V13.4475H522.141V69.4095H511.688V45.3841V45.9994Z" fill="#1E2333"/>
<path d="M410.032 13.4475H405.565H401.095L378.39 69.4095H389.358L405.302 28.9823H405.829L421.628 69.4095H432.74L410.032 13.4475Z" fill="#1E2333"/>
<path d="M431.134 57.1072L431.24 57.3909C431.986 59.4326 436.334 70.1407 450.621 70.7121C473.534 71.6311 473.125 56.1442 473.125 52.9558C473.125 50.8581 472.018 44.5051 465.34 40.8092C456.753 36.0465 442.132 36.6218 442.132 27.456C442.132 24.6471 444.517 20.7075 451.607 20.5596C458.47 20.4278 462.064 25.1146 462.551 27.7437L470.388 25.3343C468.997 22.1259 466.016 13.1598 451.242 13.1598C448.343 13.1598 445.711 13.4954 443.46 14.2946C434.272 17.555 432.607 24.9907 432.622 28.6946C432.748 50.1309 463.136 44.5611 462.794 55.6368C462.673 59.6963 458.878 62.9047 451.25 62.5611C443.346 62.2215 440.644 57.1351 439.375 54.1664L431.134 57.1072V57.1072Z" fill="#1E2333"/>
<path d="M355.371 21.5308C362.234 21.375 366.319 25.1068 367.058 27.5921L375.44 25.1828C374.046 21.9743 369.238 13.6236 355.662 12.9962C329.948 13.0002 328 38.2443 328 40.8055C328 67.412 346.883 70.3727 354.22 70.7283C360.773 71.06 370.856 70.3487 375.782 69.2979V37.1215H349.247V46.0197H365.824C365.907 46.0197 365.977 46.0916 365.977 46.1795V61.7742C365.977 61.8661 365.911 61.962 365.832 61.99C365.832 61.99 361.727 62.8451 355.803 62.6333C353.474 62.5574 338.92 61.95 338.92 41.9642C338.92 29.1224 345.036 21.6467 355.371 21.5308" fill="#1E2333"/>
</g>
<path d="M584.523 31.5299C584.523 35.1626 583.683 38.3843 582.004 41.1949C580.351 43.9791 577.992 46.1667 574.927 47.7576C571.862 49.3221 568.21 50.1043 563.972 50.1043H549.978V69.8321H538.184V13.7908H563.492C570.236 13.7908 575.42 15.342 579.045 18.4443C582.697 21.5202 584.523 25.882 584.523 31.5299ZM572.648 31.7288C572.648 25.8423 569.156 22.899 562.173 22.899H549.978V41.0756H562.493C565.745 41.0756 568.25 40.2801 570.009 38.6892C571.768 37.0717 572.648 34.7516 572.648 31.7288Z" fill="#008BF2"/>
<path d="M603.034 70.6275C598.849 70.6275 595.584 69.5006 593.239 67.2468C590.893 64.9664 589.72 61.7713 589.72 57.6613C589.72 53.2066 591.173 49.8259 594.078 47.519C597.01 45.2121 601.248 44.0056 606.792 43.8996L616.108 43.7405V41.5529C616.108 38.7422 615.615 36.6607 614.629 35.3084C613.643 33.9296 612.03 33.2402 609.791 33.2402C607.712 33.2402 606.179 33.7175 605.193 34.672C604.234 35.6001 603.634 37.1513 603.394 39.3256L591.679 38.7687C593.145 30.2572 599.343 26.0014 610.271 26.0014C615.735 26.0014 619.946 27.3404 622.905 30.0185C625.864 32.6966 627.343 36.5016 627.343 41.4336V57.1045C627.343 59.5174 627.61 61.1879 628.143 62.116C628.702 63.0175 629.622 63.4683 630.901 63.4683C631.754 63.4683 632.581 63.3887 633.38 63.2296V69.2752C631.994 69.6199 630.808 69.8718 629.822 70.0309C628.836 70.2166 627.623 70.3094 626.184 70.3094C623.358 70.3094 621.266 69.6199 619.907 68.2411C618.574 66.8623 617.774 64.8338 617.508 62.1557H617.268C615.695 64.9664 613.723 67.0877 611.35 68.5195C608.978 69.9249 606.206 70.6275 603.034 70.6275ZM616.108 49.9054L610.351 49.985C607.712 50.1175 605.86 50.3959 604.793 50.8202C603.701 51.2975 602.861 52.0134 602.275 52.968C601.715 53.9226 601.435 55.1953 601.435 56.7863C601.435 58.828 601.901 60.3527 602.834 61.3603C603.794 62.3413 605.06 62.8319 606.633 62.8319C608.392 62.8319 610.004 62.3546 611.47 61.4C612.91 60.4455 614.043 59.1329 614.869 57.4624C615.695 55.7654 616.108 53.9756 616.108 52.093V49.9054Z" fill="#008BF2"/>
<path d="M644.215 86.7359C641.47 86.7359 639.111 86.5636 637.139 86.2189V78.2641C638.631 78.4762 639.924 78.5823 641.017 78.5823C643.629 78.5823 645.575 77.8796 646.854 76.4743C648.16 75.069 649.426 72.709 650.652 69.3946L633.54 26.7968H645.415L652.212 46.9621C652.745 48.4205 653.345 50.2501 654.011 52.4509C654.677 54.6517 655.424 57.2503 656.25 60.2466C656.863 57.8071 657.449 55.5533 658.009 53.485C658.569 51.4168 659.182 49.2955 659.848 47.1212L666.245 26.7968H678L660.888 72.0992C660.195 73.9288 659.462 75.5462 658.689 76.9516C657.916 78.3569 657.13 79.6032 656.33 80.6903C654.704 82.8911 652.931 84.4423 651.012 85.3439C649.093 86.2719 646.828 86.7359 644.215 86.7359Z" fill="#008BF2"/>
<path d="M174 32H256.736L268 47L256.736 62H174L184.115 47L174 32Z" fill="#008BF2"/>
<path d="M738 32H820.736L832 47L820.736 62H738L748.115 47L738 32Z" fill="#008BF2"/>
<path d="M10.7505 11H105.249C109.525 11 113 14.4592 113 18.7219V75.9567C113 80.2167 109.528 83.6786 105.249 83.6786H10.7505C6.47475 83.6786 3 80.2194 3 75.9567V18.7219C3 14.4592 6.47202 11 10.7505 11Z" stroke="#008BF2" stroke-width="4" stroke-miterlimit="10"/>
<path d="M3 31.9949H112.997" stroke="#008BF2" stroke-width="12" stroke-miterlimit="10"/>
<path d="M14.176 68.8803H21.5575" stroke="#008BF2" stroke-width="4"/>
<path d="M25.1116 68.8803H32.493" stroke="#008BF2" stroke-width="4"/>
<path d="M36.0469 68.8803H43.4283" stroke="#008BF2" stroke-width="4"/>
<path d="M46.9824 68.8803H54.3639" stroke="#008BF2" stroke-width="4"/>
<rect x="81.9448" y="59.9922" width="20.1169" height="12.6543" rx="3" fill="#008BF2"/>
<path d="M1.51705 134V116.545H8.40341C9.72727 116.545 10.8551 116.798 11.7869 117.304C12.7188 117.804 13.429 118.5 13.9176 119.392C14.4119 120.278 14.6591 121.301 14.6591 122.46C14.6591 123.619 14.4091 124.642 13.9091 125.528C13.4091 126.415 12.6847 127.105 11.7358 127.599C10.7926 128.094 9.65057 128.341 8.30966 128.341H3.92045V125.384H7.71307C8.4233 125.384 9.00852 125.261 9.46875 125.017C9.93466 124.767 10.2813 124.423 10.5085 123.986C10.7415 123.543 10.858 123.034 10.858 122.46C10.858 121.881 10.7415 121.375 10.5085 120.943C10.2813 120.506 9.93466 120.168 9.46875 119.929C9.00284 119.685 8.41193 119.562 7.69602 119.562H5.20739V134H1.51705ZM20.3693 134.247C19.5341 134.247 18.7898 134.102 18.1364 133.812C17.483 133.517 16.9659 133.082 16.5852 132.509C16.2102 131.929 16.0227 131.207 16.0227 130.344C16.0227 129.616 16.1563 129.006 16.4233 128.511C16.6903 128.017 17.054 127.619 17.5142 127.318C17.9744 127.017 18.4972 126.79 19.0824 126.636C19.6733 126.483 20.2926 126.375 20.9403 126.312C21.7017 126.233 22.3153 126.159 22.7812 126.091C23.2472 126.017 23.5852 125.909 23.7955 125.767C24.0057 125.625 24.1108 125.415 24.1108 125.136V125.085C24.1108 124.545 23.9403 124.128 23.5994 123.832C23.2642 123.537 22.7869 123.389 22.1676 123.389C21.5142 123.389 20.9943 123.534 20.608 123.824C20.2216 124.108 19.9659 124.466 19.8409 124.898L16.483 124.625C16.6534 123.83 16.9886 123.142 17.4886 122.562C17.9886 121.977 18.6335 121.528 19.4233 121.216C20.2188 120.898 21.1392 120.739 22.1847 120.739C22.9119 120.739 23.608 120.824 24.2727 120.994C24.9432 121.165 25.5369 121.429 26.054 121.787C26.5767 122.145 26.9886 122.605 27.2898 123.168C27.5909 123.724 27.7415 124.392 27.7415 125.17V134H24.2983V132.185H24.196C23.9858 132.594 23.7045 132.955 23.3523 133.267C23 133.574 22.5767 133.815 22.0824 133.991C21.5881 134.162 21.017 134.247 20.3693 134.247ZM21.4091 131.741C21.9432 131.741 22.4148 131.636 22.8239 131.426C23.233 131.21 23.554 130.92 23.7869 130.557C24.0199 130.193 24.1364 129.781 24.1364 129.321V127.932C24.0227 128.006 23.8665 128.074 23.6676 128.136C23.4744 128.193 23.2557 128.247 23.0114 128.298C22.767 128.344 22.5227 128.386 22.2784 128.426C22.0341 128.46 21.8125 128.491 21.6136 128.52C21.1875 128.582 20.8153 128.682 20.4972 128.818C20.179 128.955 19.9318 129.139 19.7557 129.372C19.5795 129.599 19.4915 129.884 19.4915 130.224C19.4915 130.719 19.6705 131.097 20.0284 131.358C20.392 131.614 20.8523 131.741 21.4091 131.741ZM32.331 138.909C31.8707 138.909 31.4389 138.872 31.0355 138.798C30.6378 138.73 30.3082 138.642 30.0469 138.534L30.8651 135.824C31.2912 135.955 31.6747 136.026 32.0156 136.037C32.3622 136.048 32.6605 135.969 32.9105 135.798C33.1662 135.628 33.3736 135.338 33.5327 134.929L33.7457 134.375L29.0497 120.909H32.8679L35.5781 130.523H35.7145L38.4503 120.909H42.294L37.206 135.415C36.9616 136.119 36.6293 136.733 36.2088 137.256C35.794 137.784 35.2685 138.19 34.6321 138.474C33.9957 138.764 33.2287 138.909 32.331 138.909ZM44.152 134V120.909H47.6122V123.219H47.7656C48.0384 122.452 48.4929 121.847 49.1293 121.403C49.7656 120.96 50.527 120.739 51.4134 120.739C52.3111 120.739 53.0753 120.963 53.706 121.412C54.3366 121.855 54.7571 122.457 54.9673 123.219H55.1037C55.3707 122.469 55.8537 121.869 56.5526 121.42C57.2571 120.966 58.0895 120.739 59.0497 120.739C60.2713 120.739 61.2628 121.128 62.0241 121.906C62.7912 122.679 63.1747 123.776 63.1747 125.196V134H59.5526V125.912C59.5526 125.185 59.3594 124.639 58.973 124.276C58.5866 123.912 58.1037 123.73 57.5241 123.73C56.8651 123.73 56.3509 123.94 55.9815 124.361C55.6122 124.776 55.4276 125.324 55.4276 126.006V134H51.9077V125.835C51.9077 125.193 51.723 124.682 51.3537 124.301C50.9901 123.92 50.5099 123.73 49.9134 123.73C49.5099 123.73 49.1463 123.832 48.8224 124.037C48.5043 124.236 48.2514 124.517 48.0639 124.881C47.8764 125.239 47.7827 125.659 47.7827 126.142V134H44.152ZM72.0085 134.256C70.6619 134.256 69.5028 133.983 68.5312 133.438C67.5653 132.886 66.821 132.108 66.2983 131.102C65.7756 130.091 65.5142 128.895 65.5142 127.514C65.5142 126.168 65.7756 124.986 66.2983 123.969C66.821 122.952 67.5568 122.159 68.5057 121.591C69.4602 121.023 70.5795 120.739 71.8636 120.739C72.7273 120.739 73.5313 120.878 74.2756 121.156C75.0256 121.429 75.679 121.841 76.2358 122.392C76.7983 122.943 77.2358 123.636 77.5483 124.472C77.8608 125.301 78.017 126.273 78.017 127.386V128.384H66.9631V126.134H74.5994C74.5994 125.611 74.4858 125.148 74.2585 124.744C74.0313 124.341 73.7159 124.026 73.3125 123.798C72.9148 123.565 72.4517 123.449 71.9233 123.449C71.3722 123.449 70.8835 123.577 70.4574 123.832C70.0369 124.082 69.7074 124.42 69.4688 124.847C69.2301 125.267 69.108 125.736 69.1023 126.253V128.392C69.1023 129.04 69.2216 129.599 69.4602 130.071C69.7045 130.543 70.0483 130.906 70.4915 131.162C70.9347 131.418 71.4602 131.545 72.0682 131.545C72.4716 131.545 72.8409 131.489 73.1761 131.375C73.5114 131.261 73.7983 131.091 74.0369 130.864C74.2756 130.636 74.4574 130.358 74.5824 130.028L77.9403 130.25C77.7699 131.057 77.4205 131.761 76.892 132.364C76.3693 132.96 75.6932 133.426 74.8636 133.761C74.0398 134.091 73.0881 134.256 72.0085 134.256ZM84.017 126.432V134H80.3864V120.909H83.8466V123.219H84C84.2898 122.457 84.7756 121.855 85.4574 121.412C86.1392 120.963 86.9659 120.739 87.9375 120.739C88.8466 120.739 89.6392 120.938 90.3153 121.335C90.9915 121.733 91.517 122.301 91.892 123.04C92.267 123.773 92.4545 124.648 92.4545 125.665V134H88.8239V126.312C88.8295 125.511 88.625 124.886 88.2102 124.438C87.7955 123.983 87.2244 123.756 86.4972 123.756C86.0085 123.756 85.5767 123.861 85.2017 124.071C84.8324 124.281 84.5426 124.588 84.3324 124.991C84.1278 125.389 84.0227 125.869 84.017 126.432ZM102.279 120.909V123.636H94.3956V120.909H102.279ZM96.1854 117.773H99.8161V129.977C99.8161 130.312 99.8672 130.574 99.9695 130.761C100.072 130.943 100.214 131.071 100.396 131.145C100.583 131.219 100.799 131.256 101.043 131.256C101.214 131.256 101.384 131.241 101.555 131.213C101.725 131.179 101.856 131.153 101.947 131.136L102.518 133.838C102.336 133.895 102.08 133.96 101.751 134.034C101.421 134.114 101.021 134.162 100.549 134.179C99.674 134.213 98.907 134.097 98.2479 133.83C97.5945 133.562 97.0859 133.148 96.7223 132.585C96.3587 132.023 96.1797 131.312 96.1854 130.455V117.773ZM115.372 124.642L112.048 124.847C111.991 124.562 111.869 124.307 111.682 124.08C111.494 123.847 111.247 123.662 110.94 123.526C110.639 123.384 110.278 123.312 109.858 123.312C109.295 123.312 108.821 123.432 108.435 123.67C108.048 123.903 107.855 124.216 107.855 124.608C107.855 124.92 107.98 125.185 108.23 125.401C108.48 125.616 108.909 125.79 109.517 125.92L111.886 126.398C113.159 126.659 114.108 127.08 114.733 127.659C115.358 128.239 115.67 129 115.67 129.943C115.67 130.801 115.418 131.554 114.912 132.202C114.412 132.849 113.724 133.355 112.849 133.719C111.98 134.077 110.977 134.256 109.841 134.256C108.108 134.256 106.727 133.895 105.699 133.173C104.676 132.446 104.077 131.457 103.901 130.207L107.472 130.02C107.58 130.548 107.841 130.952 108.256 131.23C108.67 131.503 109.202 131.639 109.849 131.639C110.486 131.639 110.997 131.517 111.384 131.273C111.776 131.023 111.974 130.702 111.98 130.31C111.974 129.98 111.835 129.71 111.562 129.5C111.29 129.284 110.869 129.119 110.301 129.006L108.034 128.554C106.756 128.298 105.804 127.855 105.179 127.224C104.56 126.594 104.25 125.79 104.25 124.812C104.25 123.972 104.477 123.247 104.932 122.639C105.392 122.031 106.037 121.562 106.866 121.233C107.702 120.903 108.679 120.739 109.798 120.739C111.452 120.739 112.753 121.088 113.702 121.787C114.656 122.486 115.213 123.437 115.372 124.642Z" fill="#1E2333"/>
<g clip-path="url(#clip1_926_4923)">
<path d="M943 1.89627V27.9132C943 35.157 936.918 41.0354 929.674 41.0354C922.429 41.0354 916.145 35.157 916.145 27.9132" stroke="#008BF2" stroke-width="4" stroke-miterlimit="10"/>
<path d="M923.01 1.89627L916.145 27.8753C916.145 35.1191 910.265 40.9975 903.021 40.9975C895.776 40.9975 889.896 35.1191 889.896 27.8753L902.54 1.89627H983.46L996.103 27.8753V27.9764C996.103 35.2202 990.224 41.0987 982.979 41.0987C975.734 41.0987 969.451 35.1949 969.451 27.9385" stroke="#008BF2" stroke-width="4" stroke-miterlimit="10"/>
<path d="M962.99 1.89627L969.451 27.9132V27.9511C969.451 35.1949 963.571 41.0734 956.326 41.0734C949.082 41.0734 943 35.1949 943 27.9511" stroke="#008BF2" stroke-width="4" stroke-miterlimit="10"/>
<path d="M900 89V41" stroke="#008BF2" stroke-width="4" stroke-miterlimit="10"/>
<path d="M931 89V41" stroke="#008BF2" stroke-width="4" stroke-miterlimit="10"/>
<path d="M994 88H892" stroke="#008BF2" stroke-width="8" stroke-miterlimit="10"/>
<path d="M987 41V89" stroke="#008BF2" stroke-width="4" stroke-miterlimit="10"/>
<path d="M921.279 67.9511C923.074 67.9511 924.529 66.4962 924.529 64.7016C924.529 62.9069 923.074 61.452 921.279 61.452C919.484 61.452 918.029 62.9069 918.029 64.7016C918.029 66.4962 919.484 67.9511 921.279 67.9511Z" fill="#008BF2"/>
</g>
<path d="M893.775 134V116.545H900.661C901.985 116.545 903.113 116.798 904.045 117.304C904.977 117.804 905.687 118.5 906.175 119.392C906.67 120.278 906.917 121.301 906.917 122.46C906.917 123.619 906.667 124.642 906.167 125.528C905.667 126.415 904.942 127.105 903.994 127.599C903.05 128.094 901.908 128.341 900.567 128.341H896.178V125.384H899.971C900.681 125.384 901.266 125.261 901.727 125.017C902.192 124.767 902.539 124.423 902.766 123.986C902.999 123.543 903.116 123.034 903.116 122.46C903.116 121.881 902.999 121.375 902.766 120.943C902.539 120.506 902.192 120.168 901.727 119.929C901.261 119.685 900.67 119.562 899.954 119.562H897.465V134H893.775ZM912.627 134.247C911.792 134.247 911.048 134.102 910.394 133.812C909.741 133.517 909.224 133.082 908.843 132.509C908.468 131.929 908.281 131.207 908.281 130.344C908.281 129.616 908.414 129.006 908.681 128.511C908.948 128.017 909.312 127.619 909.772 127.318C910.232 127.017 910.755 126.79 911.34 126.636C911.931 126.483 912.55 126.375 913.198 126.312C913.96 126.233 914.573 126.159 915.039 126.091C915.505 126.017 915.843 125.909 916.053 125.767C916.263 125.625 916.369 125.415 916.369 125.136V125.085C916.369 124.545 916.198 124.128 915.857 123.832C915.522 123.537 915.045 123.389 914.425 123.389C913.772 123.389 913.252 123.534 912.866 123.824C912.479 124.108 912.224 124.466 912.099 124.898L908.741 124.625C908.911 123.83 909.246 123.142 909.746 122.562C910.246 121.977 910.891 121.528 911.681 121.216C912.477 120.898 913.397 120.739 914.442 120.739C915.17 120.739 915.866 120.824 916.531 120.994C917.201 121.165 917.795 121.429 918.312 121.787C918.835 122.145 919.246 122.605 919.548 123.168C919.849 123.724 919.999 124.392 919.999 125.17V134H916.556V132.185H916.454C916.244 132.594 915.962 132.955 915.61 133.267C915.258 133.574 914.835 133.815 914.34 133.991C913.846 134.162 913.275 134.247 912.627 134.247ZM913.667 131.741C914.201 131.741 914.673 131.636 915.082 131.426C915.491 131.21 915.812 130.92 916.045 130.557C916.278 130.193 916.394 129.781 916.394 129.321V127.932C916.281 128.006 916.124 128.074 915.925 128.136C915.732 128.193 915.513 128.247 915.269 128.298C915.025 128.344 914.781 128.386 914.536 128.426C914.292 128.46 914.07 128.491 913.871 128.52C913.445 128.582 913.073 128.682 912.755 128.818C912.437 128.955 912.19 129.139 912.013 129.372C911.837 129.599 911.749 129.884 911.749 130.224C911.749 130.719 911.928 131.097 912.286 131.358C912.65 131.614 913.11 131.741 913.667 131.741ZM922.816 134V120.909H926.336V123.193H926.472C926.711 122.381 927.112 121.767 927.674 121.352C928.237 120.932 928.884 120.722 929.617 120.722C929.799 120.722 929.995 120.733 930.205 120.756C930.415 120.778 930.6 120.81 930.759 120.849V124.071C930.589 124.02 930.353 123.974 930.052 123.935C929.751 123.895 929.475 123.875 929.225 123.875C928.691 123.875 928.214 123.991 927.793 124.224C927.379 124.452 927.049 124.77 926.805 125.179C926.566 125.588 926.447 126.06 926.447 126.594V134H922.816ZM940.256 120.909V123.636H932.372V120.909H940.256ZM934.162 117.773H937.793V129.977C937.793 130.312 937.844 130.574 937.946 130.761C938.048 130.943 938.19 131.071 938.372 131.145C938.56 131.219 938.776 131.256 939.02 131.256C939.19 131.256 939.361 131.241 939.531 131.213C939.702 131.179 939.832 131.153 939.923 131.136L940.494 133.838C940.313 133.895 940.057 133.96 939.727 134.034C939.398 134.114 938.997 134.162 938.526 134.179C937.651 134.213 936.884 134.097 936.224 133.83C935.571 133.562 935.063 133.148 934.699 132.585C934.335 132.023 934.156 131.312 934.162 130.455V117.773ZM946.251 126.432V134H942.621V120.909H946.081V123.219H946.234C946.524 122.457 947.01 121.855 947.692 121.412C948.374 120.963 949.2 120.739 950.172 120.739C951.081 120.739 951.874 120.938 952.55 121.335C953.226 121.733 953.751 122.301 954.126 123.04C954.501 123.773 954.689 124.648 954.689 125.665V134H951.058V126.312C951.064 125.511 950.859 124.886 950.445 124.438C950.03 123.983 949.459 123.756 948.732 123.756C948.243 123.756 947.811 123.861 947.436 124.071C947.067 124.281 946.777 124.588 946.567 124.991C946.362 125.389 946.257 125.869 946.251 126.432ZM963.516 134.256C962.17 134.256 961.011 133.983 960.039 133.438C959.073 132.886 958.329 132.108 957.806 131.102C957.283 130.091 957.022 128.895 957.022 127.514C957.022 126.168 957.283 124.986 957.806 123.969C958.329 122.952 959.065 122.159 960.013 121.591C960.968 121.023 962.087 120.739 963.371 120.739C964.235 120.739 965.039 120.878 965.783 121.156C966.533 121.429 967.187 121.841 967.744 122.392C968.306 122.943 968.744 123.636 969.056 124.472C969.369 125.301 969.525 126.273 969.525 127.386V128.384H958.471V126.134H966.107C966.107 125.611 965.994 125.148 965.766 124.744C965.539 124.341 965.224 124.026 964.82 123.798C964.423 123.565 963.96 123.449 963.431 123.449C962.88 123.449 962.391 123.577 961.965 123.832C961.545 124.082 961.215 124.42 960.977 124.847C960.738 125.267 960.616 125.736 960.61 126.253V128.392C960.61 129.04 960.729 129.599 960.968 130.071C961.212 130.543 961.556 130.906 961.999 131.162C962.442 131.418 962.968 131.545 963.576 131.545C963.979 131.545 964.349 131.489 964.684 131.375C965.019 131.261 965.306 131.091 965.545 130.864C965.783 130.636 965.965 130.358 966.09 130.028L969.448 130.25C969.278 131.057 968.928 131.761 968.4 132.364C967.877 132.96 967.201 133.426 966.371 133.761C965.548 134.091 964.596 134.256 963.516 134.256ZM971.894 134V120.909H975.414V123.193H975.55C975.789 122.381 976.19 121.767 976.752 121.352C977.315 120.932 977.962 120.722 978.695 120.722C978.877 120.722 979.073 120.733 979.283 120.756C979.494 120.778 979.678 120.81 979.837 120.849V124.071C979.667 124.02 979.431 123.974 979.13 123.935C978.829 123.895 978.553 123.875 978.303 123.875C977.769 123.875 977.292 123.991 976.871 124.224C976.457 124.452 976.127 124.77 975.883 125.179C975.644 125.588 975.525 126.06 975.525 126.594V134H971.894ZM992.607 124.642L989.283 124.847C989.226 124.562 989.104 124.307 988.916 124.08C988.729 123.847 988.482 123.662 988.175 123.526C987.874 123.384 987.513 123.312 987.092 123.312C986.53 123.312 986.055 123.432 985.669 123.67C985.283 123.903 985.089 124.216 985.089 124.608C985.089 124.92 985.214 125.185 985.464 125.401C985.714 125.616 986.143 125.79 986.751 125.92L989.121 126.398C990.393 126.659 991.342 127.08 991.967 127.659C992.592 128.239 992.905 129 992.905 129.943C992.905 130.801 992.652 131.554 992.146 132.202C991.646 132.849 990.959 133.355 990.084 133.719C989.214 134.077 988.212 134.256 987.075 134.256C985.342 134.256 983.962 133.895 982.933 133.173C981.911 132.446 981.311 131.457 981.135 130.207L984.706 130.02C984.814 130.548 985.075 130.952 985.49 131.23C985.905 131.503 986.436 131.639 987.084 131.639C987.72 131.639 988.232 131.517 988.618 131.273C989.01 131.023 989.209 130.702 989.214 130.31C989.209 129.98 989.07 129.71 988.797 129.5C988.524 129.284 988.104 129.119 987.536 129.006L985.268 128.554C983.99 128.298 983.038 127.855 982.413 127.224C981.794 126.594 981.484 125.79 981.484 124.812C981.484 123.972 981.712 123.247 982.166 122.639C982.626 122.031 983.271 121.562 984.101 121.233C984.936 120.903 985.913 120.739 987.033 120.739C988.686 120.739 989.987 121.088 990.936 121.787C991.891 122.486 992.447 123.437 992.607 124.642Z" fill="#1E2333"/>
<defs>
<clipPath id="clip0_926_4923">
<rect width="194.141" height="57.808" fill="white" transform="translate(328 13)"/>
</clipPath>
<clipPath id="clip1_926_4923">
<rect width="110" height="93.1452" fill="white" transform="translate(888)"/>
</clipPath>
</defs>
</svg>
