<svg width="1000" height="140" viewBox="0 0 1000 140" fill="none" xmlns="http://www.w3.org/2000/svg">
<g clip-path="url(#clip0_926_4923)">
<path d="M513.688 45.9994H489.495V69.4095H479.034V13.4475H489.495V37.1213H513.688V13.4475H524.141V69.4095H513.688V45.3841V45.9994Z" fill="#1E2333"/>
<path d="M412.032 13.4475H407.565H403.095L380.39 69.4095H391.358L407.302 28.9823H407.829L423.628 69.4095H434.74L412.032 13.4475Z" fill="#1E2333"/>
<path d="M433.134 57.1072L433.24 57.3909C433.986 59.4326 438.334 70.1407 452.621 70.7121C475.534 71.6311 475.125 56.1442 475.125 52.9558C475.125 50.8581 474.018 44.5051 467.34 40.8092C458.753 36.0465 444.132 36.6218 444.132 27.456C444.132 24.6471 446.517 20.7075 453.607 20.5596C460.47 20.4278 464.064 25.1146 464.551 27.7437L472.388 25.3343C470.997 22.1259 468.016 13.1598 453.242 13.1598C450.343 13.1598 447.711 13.4954 445.46 14.2946C436.272 17.555 434.607 24.9907 434.622 28.6946C434.748 50.1309 465.136 44.5611 464.794 55.6368C464.673 59.6963 460.878 62.9047 453.25 62.5611C445.346 62.2215 442.644 57.1351 441.375 54.1664L433.134 57.1072Z" fill="#1E2333"/>
<path d="M357.371 21.5308C364.234 21.375 368.319 25.1068 369.058 27.5921L377.44 25.1828C376.046 21.9743 371.238 13.6236 357.662 12.9962C331.948 13.0002 330 38.2443 330 40.8055C330 67.412 348.883 70.3727 356.22 70.7283C362.773 71.06 372.856 70.3487 377.782 69.2979V37.1215H351.247V46.0197H367.824C367.907 46.0197 367.977 46.0916 367.977 46.1795V61.7742C367.977 61.8661 367.911 61.962 367.832 61.99C367.832 61.99 363.727 62.8451 357.803 62.6333C355.474 62.5574 340.92 61.9501 340.92 41.9642C340.92 29.1224 347.036 21.6467 357.371 21.5308Z" fill="#1E2333"/>
</g>
<path d="M586.523 31.5299C586.523 35.1626 585.683 38.3843 584.004 41.1949C582.351 43.9791 579.992 46.1667 576.927 47.7576C573.862 49.3221 570.21 50.1043 565.972 50.1043H551.978V69.8321H540.184V13.7908H565.492C572.236 13.7908 577.42 15.342 581.045 18.4443C584.697 21.5202 586.523 25.882 586.523 31.5299ZM574.648 31.7288C574.648 25.8423 571.156 22.899 564.173 22.899H551.978V41.0756H564.493C567.745 41.0756 570.25 40.2801 572.009 38.6892C573.768 37.0717 574.648 34.7516 574.648 31.7288Z" fill="#008BF2"/>
<path d="M605.034 70.6275C600.849 70.6275 597.584 69.5006 595.239 67.2468C592.893 64.9664 591.72 61.7713 591.72 57.6613C591.72 53.2066 593.173 49.8259 596.078 47.519C599.01 45.2121 603.248 44.0056 608.792 43.8996L618.108 43.7405V41.5529C618.108 38.7422 617.615 36.6607 616.629 35.3084C615.643 33.9296 614.03 33.2402 611.791 33.2402C609.712 33.2402 608.179 33.7175 607.193 34.672C606.234 35.6001 605.634 37.1513 605.394 39.3256L593.679 38.7687C595.145 30.2572 601.343 26.0014 612.271 26.0014C617.735 26.0014 621.946 27.3404 624.905 30.0185C627.864 32.6966 629.343 36.5016 629.343 41.4336V57.1045C629.343 59.5174 629.61 61.1879 630.143 62.116C630.702 63.0175 631.622 63.4683 632.901 63.4683C633.754 63.4683 634.581 63.3887 635.38 63.2296V69.2752C633.994 69.6199 632.808 69.8718 631.822 70.0309C630.836 70.2166 629.623 70.3094 628.184 70.3094C625.358 70.3094 623.266 69.6199 621.907 68.2411C620.574 66.8623 619.774 64.8338 619.508 62.1557H619.268C617.695 64.9664 615.723 67.0877 613.35 68.5195C610.978 69.9249 608.206 70.6275 605.034 70.6275ZM618.108 49.9054L612.351 49.985C609.712 50.1175 607.86 50.396 606.793 50.8202C605.701 51.2975 604.861 52.0134 604.275 52.968C603.715 53.9226 603.435 55.1953 603.435 56.7863C603.435 58.828 603.901 60.3527 604.834 61.3603C605.794 62.3413 607.06 62.8319 608.633 62.8319C610.392 62.8319 612.004 62.3546 613.47 61.4C614.91 60.4455 616.043 59.1329 616.869 57.4624C617.695 55.7654 618.108 53.9756 618.108 52.093V49.9054Z" fill="#008BF2"/>
<path d="M646.215 86.7359C643.47 86.7359 641.111 86.5636 639.139 86.2189V78.2641C640.631 78.4762 641.924 78.5823 643.017 78.5823C645.629 78.5823 647.575 77.8796 648.854 76.4743C650.16 75.069 651.426 72.709 652.652 69.3946L635.54 26.7968H647.415L654.212 46.9621C654.745 48.4205 655.345 50.2501 656.011 52.4509C656.677 54.6517 657.424 57.2503 658.25 60.2466C658.863 57.8071 659.449 55.5533 660.009 53.485C660.569 51.4168 661.182 49.2955 661.848 47.1212L668.245 26.7968H680L662.888 72.0992C662.195 73.9288 661.462 75.5462 660.689 76.9516C659.916 78.3569 659.13 79.6032 658.33 80.6903C656.704 82.8911 654.931 84.4423 653.012 85.3439C651.093 86.2719 648.828 86.7359 646.215 86.7359Z" fill="#008BF2"/>
<path d="M176 32H258.736L270 47L258.736 62H176L186.115 47L176 32Z" fill="#008BF2"/>
<path d="M740 32H822.736L834 47L822.736 62H740L750.115 47L740 32Z" fill="#008BF2"/>
<path d="M9.75052 11H104.249C108.525 11 112 14.4592 112 18.7219V75.9567C112 80.2167 108.528 83.6786 104.249 83.6786H9.75052C5.47475 83.6786 2 80.2194 2 75.9567V18.7219C2 14.4592 5.47202 11 9.75052 11Z" stroke="#008BF2" stroke-width="4" stroke-miterlimit="10"/>
<path d="M2 31.9949H111.997" stroke="#008BF2" stroke-width="12" stroke-miterlimit="10"/>
<path d="M13.176 68.8803H20.5575" stroke="#008BF2" stroke-width="4"/>
<path d="M24.1116 68.8803H31.493" stroke="#008BF2" stroke-width="4"/>
<path d="M35.0469 68.8803H42.4283" stroke="#008BF2" stroke-width="4"/>
<path d="M45.9824 68.8803H53.3639" stroke="#008BF2" stroke-width="4"/>
<rect x="80.9448" y="59.9922" width="20.1169" height="12.6543" rx="3" fill="#008BF2"/>
<path d="M40.896 125.048C43.368 129.776 48.6 132.536 56.328 133.4C55.68 134.072 54.888 135.392 54.48 136.208C46.392 135.056 41.304 131.84 38.184 125.984L40.896 125.048ZM35.832 122.432H51.216V125.24H35.832V122.432ZM34.656 116.792H55.224V119.648H34.656V116.792ZM43.416 113.624H46.416V123.704H43.416V113.624ZM50.28 122.432H50.904L51.408 122.336L53.424 123.488C50.544 131.264 43.56 134.768 35.232 136.16C34.968 135.392 34.224 134.024 33.672 133.376C41.736 132.32 48.096 129.488 50.28 122.96V122.432ZM65.4 118.808H80.232V121.736H65.4V118.808ZM74.592 113.888H77.568V132.68C77.568 134.504 77.136 135.272 75.984 135.704C74.808 136.16 72.984 136.208 70.32 136.184C70.176 135.392 69.648 134.096 69.216 133.328C71.088 133.424 73.176 133.424 73.752 133.4C74.352 133.376 74.592 133.208 74.592 132.656V113.888ZM66.48 124.64L69.024 123.44C70.104 125.192 71.616 127.568 72.336 129.032L69.6 130.424C68.976 128.96 67.56 126.488 66.48 124.64ZM60.984 120.68L63.888 117.776L63.912 117.824V136.112H60.984V120.68ZM63.384 113.744L66.216 114.656C64.608 118.832 62.016 123.224 59.304 125.984C58.992 125.264 58.128 123.68 57.6 122.96C59.904 120.776 62.088 117.272 63.384 113.744Z" fill="#1E2333"/>
<g clip-path="url(#clip1_926_4923)">
<path d="M945 1.89627V27.9132C945 35.157 938.918 41.0354 931.674 41.0354C924.429 41.0354 918.145 35.157 918.145 27.9132" stroke="#008BF2" stroke-width="4" stroke-miterlimit="10"/>
<path d="M925.01 1.89627L918.145 27.8753C918.145 35.1191 912.265 40.9975 905.021 40.9975C897.776 40.9975 891.896 35.1191 891.896 27.8753L904.54 1.89627H985.46L998.103 27.8753V27.9764C998.103 35.2202 992.224 41.0987 984.979 41.0987C977.734 41.0987 971.451 35.1949 971.451 27.9385" stroke="#008BF2" stroke-width="4" stroke-miterlimit="10"/>
<path d="M964.99 1.89627L971.451 27.9132V27.9511C971.451 35.1949 965.571 41.0734 958.326 41.0734C951.082 41.0734 945 35.1949 945 27.9511" stroke="#008BF2" stroke-width="4" stroke-miterlimit="10"/>
<path d="M902 89V41" stroke="#008BF2" stroke-width="4" stroke-miterlimit="10"/>
<path d="M933 89V41" stroke="#008BF2" stroke-width="4" stroke-miterlimit="10"/>
<path d="M996 88H894" stroke="#008BF2" stroke-width="8" stroke-miterlimit="10"/>
<path d="M989 41V89" stroke="#008BF2" stroke-width="4" stroke-miterlimit="10"/>
<path d="M923.279 67.9511C925.074 67.9511 926.529 66.4962 926.529 64.7016C926.529 62.9069 925.074 61.452 923.279 61.452C921.484 61.452 920.029 62.9069 920.029 64.7016C920.029 66.4962 921.484 67.9511 923.279 67.9511Z" fill="#008BF2"/>
</g>
<path d="M903 121.376H915.048V123.896H903V121.376ZM902.712 132.776H915.096V135.296H902.712V132.776ZM901.44 126.296H916.728V136.208H913.776V128.84H904.272V136.208H901.44V126.296ZM908.904 116.48C906.936 119.288 903.24 122.456 899.28 124.568C898.896 123.896 898.104 122.84 897.48 122.24C901.632 120.224 905.496 116.6 907.272 113.648H910.272C912.888 117.344 916.752 120.392 920.616 121.952C919.896 122.672 919.224 123.656 918.72 124.544C915.024 122.6 910.992 119.336 908.904 116.48ZM932.808 117.536H944.328V120.272H931.464L932.808 117.536ZM935.976 122.816H943.704V125.432H935.976V122.816ZM935.952 128.12H944.016V130.808H935.952V128.12ZM934.512 118.448H937.464V136.16H934.512V118.448ZM933.36 113.84L936.144 114.584C934.8 118.472 932.64 122.456 930.432 124.952C929.976 124.424 928.872 123.392 928.248 122.936C930.36 120.776 932.256 117.32 933.36 113.84ZM927.024 113.72L929.808 114.608C928.248 118.688 925.728 123.08 923.088 125.816C922.824 125.096 922.008 123.464 921.504 122.744C923.712 120.56 925.8 117.152 927.024 113.72ZM924.6 120.344L927.48 117.44L927.504 117.464V136.136H924.6V120.344ZM946.464 115.448H967.56V118.04H946.464V115.448ZM955.392 113.624H958.368V116.984H955.392V113.624ZM947.256 119.936H965.712V122.408H949.992V136.112H947.256V119.936ZM964.224 119.936H967.008V133.04C967.008 134.432 966.72 135.248 965.784 135.68C964.824 136.112 963.48 136.184 961.584 136.184C961.464 135.416 961.032 134.144 960.648 133.424C961.896 133.496 963.288 133.496 963.696 133.472C964.104 133.472 964.224 133.352 964.224 133.016V119.936ZM953.304 122.096H955.848C955.656 124.976 954.84 126.608 951.024 127.472C950.808 126.872 950.208 125.936 949.704 125.48C952.68 124.952 953.184 124.016 953.304 122.096ZM957.744 122.096H960.24V123.92C960.24 124.448 960.288 124.496 960.72 124.496C960.936 124.496 961.728 124.496 961.968 124.496C962.352 124.496 962.448 124.328 962.52 123.152C962.976 123.488 963.984 123.824 964.632 123.968C964.392 126.008 963.768 126.56 962.28 126.56C961.848 126.56 960.744 126.56 960.336 126.56C958.2 126.56 957.744 125.936 957.744 123.968V122.096ZM952.344 127.472H954.888V135.032H952.344V127.472ZM953.928 127.472H961.824V133.736H953.928V131.624H959.232V129.584H953.928V127.472ZM950.76 117.992L953.616 117.512C954.048 118.28 954.504 119.312 954.696 120.008L951.72 120.608C951.576 119.912 951.144 118.808 950.76 117.992ZM960.144 117.488L963.336 117.968C962.76 119.024 962.256 119.888 961.824 120.536L958.968 120.056C959.376 119.312 959.88 118.232 960.144 117.488ZM979.488 113.648H982.44V117.08H979.488V113.648ZM970.824 115.52H991.248V120.944H988.32V118.136H973.632V120.944H970.824V115.52ZM974.472 119.672H987.432V122.12H974.472V119.672ZM976.824 123.944L979.032 122.648C984.696 126.584 984.648 133.352 982.08 135.2C981.168 135.992 980.4 136.208 979.128 136.208C978.528 136.232 977.808 136.208 977.088 136.16C977.04 135.368 976.776 134.216 976.272 133.4C977.16 133.496 977.952 133.52 978.576 133.52C979.176 133.52 979.632 133.448 980.04 133.016C981.408 131.96 981.408 127.208 976.824 123.944ZM980.616 120.296L982.992 121.28C980.448 123.872 976.08 125.72 972.072 126.776C971.808 126.224 971.064 125.072 970.608 124.544C974.424 123.776 978.528 122.288 980.616 120.296ZM978.744 125.072L980.592 126.368C978.6 127.904 975.072 129.68 972.384 130.616C972.072 129.992 971.472 129.008 970.944 128.432C973.56 127.808 977.04 126.368 978.744 125.072ZM980.688 127.352L982.656 128.816C980.088 131.264 975.408 133.808 971.592 135.08C971.256 134.36 970.632 133.328 970.08 132.704C973.872 131.768 978.456 129.512 980.688 127.352ZM984.336 120.704C985.488 125.744 987.96 130.04 992.208 131.936C991.56 132.512 990.648 133.664 990.216 134.456C985.68 132.032 983.28 127.232 981.912 121.184L984.336 120.704ZM989.016 122.264L991.272 124.208C989.616 125.456 987.528 126.8 985.968 127.592L984.12 125.864C985.632 125 987.768 123.464 989.016 122.264Z" fill="#1E2333"/>
<defs>
<clipPath id="clip0_926_4923">
<rect width="194.141" height="57.808" fill="white" transform="translate(330 13)"/>
</clipPath>
<clipPath id="clip1_926_4923">
<rect width="110" height="93.1452" fill="white" transform="translate(890)"/>
</clipPath>
</defs>
</svg>
